<svg width="128" height="128" viewBox="0 0 128 128" fill="none" xmlns="http://www.w3.org/2000/svg">
<rect width="128" height="128" rx="6" fill="#E87414"/>
<path d="M88.9677 92.8667C87.7656 91.9079 86.5063 91.0207 85.3186 90.0046C84.4743 89.332 83.7015 88.5736 82.9144 87.8295C82.4136 87.3572 81.97 86.8277 81.4834 86.3984C81.0332 86.0941 80.5538 85.8352 80.0524 85.6257C79.5229 85.3395 78.9648 85.0962 78.4639 84.767C77.9631 84.4379 77.0329 83.7367 76.3889 83.336C75.9453 83.0498 75.4301 82.8924 74.9579 82.6062C74.509 82.3202 74.0832 81.9997 73.6843 81.6474C73.3695 81.3755 73.1405 81.3469 72.9258 81.6474C72.7112 81.9479 72.2389 82.1626 71.7095 81.8334C71.18 81.5043 70.1496 81.0607 69.3769 80.66C68.9476 80.431 68.5326 80.1448 68.1176 79.8872L65.6705 78.2701C65.4881 78.186 65.3193 78.075 65.1696 77.941C64.3204 77.2372 63.3938 76.6322 62.4077 76.1379C61.5491 75.5655 60.7048 74.9645 59.9034 74.3205C58.9687 73.6555 58.0795 72.9288 57.2417 72.1453C55.7901 70.4863 54.6027 68.6135 53.7214 66.5929C52.8341 64.8757 52.2903 62.9724 51.5605 61.1693C51.2601 60.6219 50.895 60.1126 50.4729 59.6524C49.8719 58.8367 49.2995 58.0067 48.6841 57.2196C48.0688 56.4326 47.1243 55.3021 46.3229 54.3576C46.0653 54.0571 45.7648 53.7852 45.4786 53.4846C44.8001 52.794 43.9817 52.2567 43.0783 51.9086C42.6979 51.9086 42.4587 51.9937 41.4923 52.0506C39.5174 52.0506 36.1575 52.022 34.1827 52.0506C33.8912 51.9896 33.7625 51.4467 33.5152 51.2809C33.5152 51.424 33.4293 51.6529 33.3578 51.6529C32.6279 51.7817 33.3454 51.9934 32.5583 52.0506C32.1433 52.0506 31.3633 52.0363 30.934 52.0506C30.4524 52.1021 29.7811 51.9401 29.3096 52.0506C29.0907 52.0724 27.9956 52.0468 27.7767 52.025C27.9777 51.8409 28.2173 51.704 28.4779 51.6243C29.909 51.3667 31.34 51.1378 32.771 50.9374C33 50.9374 33.2719 51.1091 33.5009 51.2093C33.5009 51.0662 33.5009 50.8372 33.5009 50.8372L37.6079 50.4079C37.7149 50.4181 37.8156 50.4634 37.8941 50.5367C38.0802 50.6655 38.0086 50.5367 38.1374 50.5367C38.2644 50.4522 38.4074 50.3947 38.5576 50.3676C38.7077 50.3405 38.8618 50.3445 39.0103 50.3793C39.2965 50.5653 39.3395 50.3793 39.5398 50.3078C39.9417 50.1572 40.3767 50.1177 40.7991 50.1933C41.1106 50.2585 41.4322 50.2585 41.7436 50.1933C43.2598 49.9771 44.6891 49.354 45.8793 48.3902C46.7204 47.8824 47.5954 47.4329 48.4981 47.045C50.043 46.1991 51.8352 45.9207 53.5639 46.2579C54.5623 46.4558 55.5264 46.798 56.426 47.274C57.3627 47.8811 58.0566 48.7978 58.3865 49.8641C58.8588 51.009 59.2452 52.1824 59.6745 53.3415C59.817 53.6897 59.9318 54.0486 60.0179 54.4148C60.1941 55.0683 60.518 55.6727 60.9646 56.1813C61.4111 56.6899 61.9685 57.0892 62.5938 57.3484C63.5084 57.7892 64.468 58.1299 65.4558 58.3645C65.705 58.4578 65.9795 58.4578 66.2286 58.3645C67.9172 57.3914 69.6058 56.4183 71.2801 55.4022C72.382 54.7296 73.4267 53.9712 74.5429 53.2986C75.5988 52.5878 76.7201 51.9793 77.8915 51.4812C79.6477 50.6787 81.3537 49.7707 83.0003 48.7622C83.9734 48.2757 84.9751 47.8178 85.8624 47.2597C86.7496 46.7016 87.8801 45.8286 88.9391 45.2133C89.7428 44.7697 90.5692 44.3684 91.4148 44.0112C91.5693 43.9685 91.7325 43.9685 91.887 44.0112C93.59 44.2831 94.9351 43.2671 96.4377 42.7662C96.9386 42.5945 97.4108 42.3369 97.8687 42.1222C97.9493 42.1086 98.0315 42.1086 98.112 42.1222C98.112 42.2081 98.0118 42.2653 97.9689 42.3369L96.5379 43.9253C96.496 43.9875 96.4624 44.0549 96.4377 44.1257C96.1801 44.555 95.9655 44.9986 95.6793 45.3993C95.0639 46.2722 94.4486 47.1452 93.7617 47.9609C93.2728 48.5024 92.7468 49.0092 92.1875 49.4778C91.8727 49.764 91.5007 49.9643 91.2144 50.2505C90.7833 50.8063 90.3045 51.3235 89.7834 51.796C88.7626 52.8154 87.8381 53.9268 87.0215 55.116C86.121 56.3099 85.0507 57.3658 83.8446 58.25C83.0496 58.8376 82.3118 59.4988 81.6408 60.2248C79.7901 62.0784 78.1708 64.1494 76.8182 66.3926C76.1886 67.3227 76.3746 67.9524 77.1331 68.8253C78.8217 70.8288 80.5676 72.8036 82.1417 74.8929C83.7158 76.9822 85.1326 79.186 86.5636 81.3469C87.2791 82.4345 87.7657 83.6795 88.5241 84.7241C89.3057 85.6825 90.1571 86.5817 91.0713 87.4145C92.2591 88.5879 93.4612 89.747 94.6632 90.9062C101.784 82.8087 105.474 72.2573 104.951 61.4865C104.428 50.7158 99.7329 40.5717 91.8603 33.2025C83.9878 25.8333 73.556 21.8178 62.7742 22.0064C51.9925 22.1949 41.7075 26.5728 34.0975 34.2128C26.4874 41.8528 22.15 52.1549 22.0038 62.9373C21.8576 73.7197 25.9141 84.1357 33.3142 91.9792C40.7142 99.8227 50.8767 104.478 61.6494 104.959C72.4221 105.44 82.959 101.708 91.0284 94.5553C90.3415 93.9543 89.6546 93.3962 88.9677 92.8667Z" fill="white"/>
</svg>
