<svg width="128" height="128" viewBox="0 0 128 128" fill="none" xmlns="http://www.w3.org/2000/svg">
<rect width="128" height="128" rx="6" fill="#E87414"/>
<path d="M10 33.0593C10 32.8233 10.0672 32.43 10.1344 32.43C12.4421 32.1941 14.7386 31.9918 17.0464 31.812C17.2252 31.8311 17.3936 31.9057 17.5281 32.0255C17.8305 32.2502 17.7185 32.0255 17.9201 31.9581C18.3682 31.7333 19.0404 31.5086 19.3877 31.7109C19.7349 31.9131 19.959 31.7109 20.2951 31.621C20.9689 31.3588 21.7027 31.2926 22.4123 31.4299C22.9409 31.5274 23.4846 31.5043 24.0031 31.3625C26.5511 31.0288 28.9622 30.0116 30.9822 28.4184C32.4263 27.5735 33.923 26.8229 35.4632 26.1709C38.0852 24.7818 41.109 24.3564 44.0107 24.9686C45.671 25.3155 47.2689 25.9142 48.7493 26.744C50.3105 27.7857 51.4565 29.345 51.9868 31.149C52.7598 33.0818 53.3872 35.0708 54.0705 37.0373C54.3061 37.6317 54.4934 38.2442 54.6306 38.8689C55.0899 41.3523 56.8711 42.757 58.8428 43.8919C60.3377 44.6398 61.9024 45.2382 63.5142 45.6787C63.9391 45.8238 64.4028 45.8038 64.8137 45.6225C67.6815 44.038 70.5381 42.4199 73.3612 40.7568C75.2432 39.6331 77.0244 38.3857 78.9624 37.2957C80.7523 36.1168 82.6504 35.1121 84.6308 34.2954C87.7227 33.1717 90.4225 31.4187 93.324 29.9916C94.9707 29.1825 96.6847 28.4521 98.2418 27.5306C100.023 26.4856 101.603 25.1933 103.451 24.1595C104.817 23.4303 106.22 22.7702 107.652 22.1817C107.893 22.0683 108.161 22.0254 108.425 22.0581C111.282 22.5526 113.589 20.9344 116.11 20.0692C116.961 19.7995 117.757 19.3612 118.586 19.0129C118.723 18.9957 118.862 18.9957 119 19.0129C118.92 19.1336 118.834 19.2499 118.742 19.3612L116.267 22.002C116.19 22.1064 116.126 22.2195 116.076 22.3391C115.65 23.047 115.27 23.8111 114.777 24.4854C113.724 25.935 112.659 27.3958 111.494 28.7555C110.662 29.6637 109.763 30.5088 108.806 31.2839C108.29 31.7446 107.686 32.0705 107.17 32.5649C106.449 33.4889 105.655 34.3532 104.795 35.1494C102.756 36.6103 101.759 38.9251 100.079 40.6781C98.3987 42.4311 96.9423 44.5549 94.6682 45.8809C93.3109 46.8465 92.0436 47.9335 90.8818 49.1285C87.5211 52.0501 85.1685 55.8708 82.6368 59.4329C81.5165 60.9724 81.8526 62.0512 83.0849 63.5345C85.9079 66.9057 88.7757 70.2768 91.3971 73.8952C94.0185 77.5135 96.3262 81.1656 98.6787 84.8739C99.799 86.728 100.639 88.8294 101.905 90.6048C103.187 92.2452 104.595 93.7819 106.117 95.2008C108.627 97.7404 111.158 100.235 113.668 102.763C113.837 102.992 113.983 103.237 114.105 103.494C113.864 103.36 113.636 103.206 113.421 103.033C112.298 102.056 111.12 101.144 109.892 100.303C108.714 99.6798 107.475 99.179 106.196 98.808C105.848 98.6844 105.199 98.6844 105.075 98.8866C104.9 99.2838 104.876 99.7315 105.008 100.145C105.15 100.578 105.341 100.993 105.579 101.381C106.621 103.629 107.686 105.764 108.694 107.989C108.728 108.154 108.724 108.324 108.683 108.488C108.643 108.651 108.566 108.803 108.458 108.933C108.358 109.056 107.82 109 107.629 108.843C105.882 107.427 104.179 105.955 102.432 104.539C100.415 102.91 98.3315 101.37 96.3374 99.7069C94.9483 98.5832 93.66 97.2572 92.3605 95.9987C91.5204 95.1896 90.781 94.2682 89.8848 93.5377C89.1423 93.0156 88.3506 92.5677 87.5211 92.2005C86.6249 91.7061 85.6951 91.2903 84.8549 90.7172C83.6674 89.9081 82.6144 88.953 81.3933 88.1551C80.6652 87.6495 79.7914 87.3685 79.0408 86.8853C78.2906 86.3897 77.579 85.8375 76.9123 85.2335C76.397 84.7615 76.0049 84.7166 75.6353 85.3234C75.0527 86.2785 74.515 86.1662 73.5852 85.5931C72.3641 84.7952 70.9862 84.2558 69.6979 83.5591C68.9698 83.1658 68.2976 82.6939 67.6031 82.2331C66.2364 81.3229 64.8809 80.3902 63.5142 79.4688C63.2145 79.304 62.9329 79.1082 62.674 78.8845C61.3745 77.4911 59.6045 76.8168 58.081 75.7718C56.5575 74.7267 55.2356 73.7603 53.9137 72.6703C52.3858 71.5023 50.934 70.2374 49.5671 68.8834C46.9569 66.1752 45.411 62.7479 43.7754 59.4554C42.3191 56.5225 41.5349 53.2862 40.2691 50.2409C39.7657 49.3154 39.1567 48.4519 38.4543 47.6676C37.4684 46.2855 36.5274 44.8696 35.4968 43.5211C34.2421 41.8693 32.9202 40.2623 31.5984 38.6442C31.1727 38.1273 30.6686 37.6553 30.2093 37.1496C29.0798 35.968 27.7123 35.0412 26.198 34.4308C24.6836 33.8205 23.0571 33.5407 21.4265 33.6099C18.0658 33.6099 14.8059 33.7448 11.4899 33.756C10.9928 33.6497 10.521 33.4474 10.1008 33.1605L10 33.0593Z" fill="white"/>
</svg>
