<svg xmlns="http://www.w3.org/2000/svg" viewBox="0 0 93.06 67.9"><g id="Layer_2" data-name="Layer 2"><g id="Layer_1-2" data-name="Layer 1"><path d="M49.58,17.4V3a3,3,0,0,0-6,0V17.4a27.15,27.15,0,0,1,2.9-.1C47.48,17.3,48.58,17.3,49.58,17.4Z"/><path d="M30.38,19.8a54.75,54.75,0,0,1,5.8-1.5L33.58,5.8A3,3,0,0,0,30,3.5,2.9,2.9,0,0,0,27.68,7Z"/><path d="M17,26.1a52.66,52.66,0,0,1,5.3-3l-3.9-10a3,3,0,1,0-5.6,2.2Z"/><path d="M9.38,31.8,5.68,25a3,3,0,0,0-4.1-1.2,3,3,0,0,0-1.2,4.1l4.5,8.2C6.18,34.7,7.68,33.3,9.38,31.8Z"/><path d="M65.48,7a3,3,0,0,0-2.3-3.5,3,3,0,0,0-3.6,2.3L57,18.4a49.12,49.12,0,0,1,5.8,1.5Z"/><path d="M80.38,15.2a3.07,3.07,0,0,0-1.7-3.9,3,3,0,0,0-3.9,1.7l-3.9,10.1c1.9.9,3.6,2,5.3,3Z"/><path d="M91.48,23.8a3.07,3.07,0,0,0-4.1,1.2l-3.8,6.9c1.7,1.5,3.2,3,4.5,4.3l4.6-8.4A2.87,2.87,0,0,0,91.48,23.8Z"/><path d="M46.48,21.3c-23.6,0-38,16.2-42.2,21.6a2.71,2.71,0,0,0,0,3.4c4.2,5.4,18.6,21.6,42.2,21.6s38-16.2,42.2-21.6a2.71,2.71,0,0,0,0-3.4C84.48,37.5,70,21.3,46.48,21.3Zm0,40.7a17.4,17.4,0,1,1,17.4-17.4A17.41,17.41,0,0,1,46.48,62Z"/><path d="M46.48,32.1a11.79,11.79,0,0,0-4.6.9,5.61,5.61,0,0,1,3.9,5.4,5.7,5.7,0,0,1-5.7,5.7,5.61,5.61,0,0,1-5.4-3.9,13.89,13.89,0,0,0-.8,4.6,12.6,12.6,0,0,0,25.2,0A12.7,12.7,0,0,0,46.48,32.1Z"/></g></g></svg>