<svg width="99" height="38" viewBox="0 0 99 38" fill="none" xmlns="http://www.w3.org/2000/svg">
<path d="M4.48534 16.9991C3.68277 17.0111 2.89348 16.786 2.20977 16.3501C1.53623 15.9205 0.980791 15.3184 0.596984 14.6016C0.194537 13.8556 -0.0112113 13.0129 0.000471177 12.1583V4.75208C0.0106505 3.91858 0.231572 3.10243 0.641169 2.38515C1.0228 1.67324 1.57594 1.07608 2.24659 0.651944C2.93297 0.225334 3.71821 0 4.51848 0C5.31875 0 6.10399 0.225334 6.79037 0.651944C7.47167 1.08365 8.03335 1.69115 8.42057 2.41513C8.80779 3.13911 9.00731 3.95482 8.99966 4.78262V5.87447C9.00079 5.88779 8.99908 5.90122 8.99467 5.91379C8.99026 5.92636 8.98324 5.93778 8.97412 5.94724C8.96499 5.9567 8.95398 5.96397 8.94186 5.96855C8.92973 5.97312 8.91679 5.97489 8.90393 5.97373H6.29696C6.28411 5.97489 6.27116 5.97312 6.25904 5.96855C6.24691 5.96397 6.2359 5.9567 6.22678 5.94724C6.21765 5.93778 6.21063 5.92636 6.20622 5.91379C6.2018 5.90122 6.2001 5.88779 6.20123 5.87447V4.78262C6.20909 4.28477 6.03552 3.80215 5.71518 3.43118C5.56347 3.24777 5.37458 3.10135 5.16199 3.00236C4.9494 2.90338 4.71835 2.85427 4.48534 2.85854C4.24508 2.84235 4.00465 2.88748 3.78511 2.98998C3.56557 3.09247 3.37361 3.2492 3.22604 3.44645C2.93859 3.8275 2.78529 4.29891 2.79155 4.78262V12.1888C2.76888 12.7135 2.9461 13.2263 3.28495 13.6166C3.43678 13.7897 3.62224 13.9276 3.82914 14.021C4.03604 14.1144 4.25968 14.1614 4.48534 14.1587C4.72121 14.1626 4.95479 14.1103 5.16803 14.0057C5.38128 13.9011 5.56848 13.7471 5.71518 13.5555C6.03103 13.1758 6.20368 12.6903 6.20123 12.1888V11.0817C6.20123 11.0206 6.20123 10.9901 6.29696 10.9901H8.88184C8.94075 10.9901 8.97757 10.9901 8.97757 11.0817V12.1736C8.98795 13.03 8.77689 13.8736 8.36633 14.6168C7.97809 15.3302 7.42361 15.9314 6.75355 16.3653C6.07123 16.7965 5.28423 17.0164 4.48534 16.9991Z" fill="white"/>
<path d="M10 16.889L12.7899 1.08918C12.7951 1.06241 12.8098 1.03857 12.8312 1.02219C12.8526 1.00582 12.8792 0.998062 12.9058 1.00041H16.2029C16.2295 0.998062 16.2561 1.00582 16.2775 1.02219C16.2989 1.03857 16.3136 1.06241 16.3188 1.08918L19 16.889C19 16.963 18.971 17 18.913 17H16.3696C16.3116 17 16.2754 16.963 16.2609 16.889L16.0145 15.2099H12.9493L12.7029 16.889C12.7011 16.9191 12.688 16.9474 12.6665 16.968C12.6449 16.9886 12.6165 17.0001 12.587 17H10.087C10.029 17 10 16.963 10 16.889ZM13.3985 12.7763H15.5725L14.6522 6.31882L14.5145 5.46817L14.4275 6.31882L13.3985 12.7763Z" fill="white"/>
<path d="M21.0883 16.9989C21.0294 16.9989 21 16.9619 21 16.8879V1.08876C21 1.02959 21.0368 1 21.1104 1H23.6565C23.7301 1 23.7669 1.02959 23.7669 1.08876V7.3463H27.196V1.08876C27.196 1.02959 27.196 1 27.2917 1H29.8304C29.904 1 29.9408 1.02959 29.9408 1.08876L29.9997 16.8879C30.0009 16.9035 29.9987 16.9191 29.9931 16.9337C29.9875 16.9482 29.9788 16.9613 29.9674 16.972C29.9561 16.9827 29.9425 16.9906 29.9277 16.9953C29.9129 16.9999 29.8973 17.0012 29.8819 16.9989H27.3211C27.2402 16.9989 27.2034 16.9619 27.2034 16.8879V10.1274H23.7742V16.8879C23.7742 16.9619 23.7448 16.9989 23.6859 16.9989H21.0883Z" fill="white"/>
<path d="M36.4851 16.9988C35.6925 17.0052 34.914 16.7902 34.239 16.3785C33.5619 15.9739 33.0013 15.4033 32.6114 14.7217C32.2048 14.0256 31.9937 13.2342 32.0001 12.4299L32.0443 1.08795C32.0443 1.02956 32.0443 1.00037 32.1401 1.00037H34.7029C34.7618 1.00037 34.7987 1.00037 34.7987 1.08795V12.4299C34.784 12.9113 34.9582 13.3796 35.2847 13.7364C35.4348 13.907 35.6206 14.043 35.8292 14.135C36.0378 14.2271 36.2642 14.2728 36.4925 14.2692C36.7231 14.2735 36.9518 14.2281 37.1629 14.1361C37.374 14.0441 37.5624 13.9077 37.715 13.7364C38.0435 13.3804 38.2203 12.9122 38.2084 12.4299V1.08795C38.2073 1.07617 38.2088 1.06428 38.2128 1.05314C38.2169 1.042 38.2233 1.03188 38.2318 1.02351C38.2402 1.01515 38.2504 1.00873 38.2617 1.00473C38.2729 1.00073 38.2849 0.999237 38.2968 1.00037H40.8597C40.9259 1.00037 40.9554 1.00037 40.9554 1.08795L40.9996 12.4299C41.0106 13.2431 40.8021 14.0444 40.3957 14.7509C40.0036 15.4309 39.4436 16.0011 38.7681 16.4077C38.0779 16.8125 37.287 17.0174 36.4851 16.9988Z" fill="white"/>
<path d="M42.1221 16.9986C42.1056 17.0012 42.0887 17.0001 42.0728 16.9955C42.0569 16.9908 42.0424 16.9827 42.0306 16.9718C42.0188 16.961 42.01 16.9477 42.0049 16.933C41.9999 16.9184 41.9987 16.9028 42.0015 16.8877V1.08913C42.0002 1.07719 42.0019 1.06514 42.0063 1.05385C42.0107 1.04256 42.0178 1.03231 42.027 1.02383C42.0362 1.01535 42.0473 1.00885 42.0596 1.00479C42.0719 1.00074 42.085 0.999226 42.098 1.00037H44.8955C44.9678 1.00037 45 1.00037 45 1.08913V16.8877C45 16.9616 45 16.9986 44.8955 16.9986H42.1221Z" fill="white"/>
<path d="M47.1018 16.9989C47.04 16.9989 47.0014 16.9619 47.0014 16.8879V1.11231C46.9987 1.09716 46.9999 1.08162 47.0047 1.06698C47.0096 1.05234 47.0181 1.03903 47.0294 1.02816C47.0407 1.0173 47.0546 1.00919 47.0699 1.00453C47.0852 0.99987 47.1014 0.998785 47.1172 1.00137H49.8116C49.8965 1.00137 49.9351 1.00137 49.9351 1.11231V14.1736H54.8761C54.8922 14.1713 54.9086 14.1726 54.9242 14.1772C54.9397 14.1819 54.954 14.1898 54.9658 14.2005C54.9777 14.2112 54.9869 14.2243 54.9928 14.2388C54.9986 14.2534 55.001 14.269 54.9996 14.2846V16.8879C55.001 16.9035 54.9986 16.9191 54.9928 16.9337C54.9869 16.9482 54.9777 16.9613 54.9658 16.972C54.954 16.9827 54.9397 16.9906 54.9242 16.9953C54.9086 16.9999 54.8922 17.0012 54.8761 16.9989H47.1018Z" fill="white"/>
<path d="M57.0826 17C57.0284 17 57.0013 16.963 57.0013 16.8891V1.11232C56.9989 1.09717 56.9999 1.08162 57.0042 1.06698C57.0084 1.05234 57.0159 1.03903 57.0258 1.02816C57.0358 1.0173 57.048 1.00919 57.0614 1.00453C57.0748 0.99987 57.0891 0.998785 57.103 1.00137H59.4495C59.4634 0.998785 59.4776 0.99987 59.491 1.00453C59.5044 1.00919 59.5167 1.0173 59.5266 1.02816C59.5366 1.03903 59.544 1.05234 59.5483 1.06698C59.5526 1.08162 59.5536 1.09717 59.5512 1.11232V14.1745H63.8915C63.9661 14.1745 64 14.2115 64 14.2855V16.8891C64 16.963 63.9661 17 63.8915 17H57.0826Z" fill="white"/>
<path d="M65 16.889L67.8011 1.08918C67.8048 1.06302 67.8181 1.03926 67.8384 1.02276C67.8586 1.00626 67.8844 0.998267 67.9103 1.00041H71.1916C71.2183 0.998062 71.245 1.00582 71.2665 1.02219C71.2879 1.03857 71.3027 1.06241 71.308 1.08918L74 16.889C74 16.963 74 17 73.9054 17H71.3953C71.3371 17 71.3007 16.963 71.2862 16.889L71.0315 15.2099H67.9612L67.7065 16.889C67.7065 16.963 67.6702 17 67.5974 17H65.0873C65 17 65 16.963 65 16.889ZM68.4196 12.7468H70.6023L69.6783 6.28923L69.54 5.43858L69.4527 6.28923L68.4196 12.7468Z" fill="white"/>
<path d="M4.49636 37.9995C3.69115 38.0088 2.89997 37.7814 2.21519 37.3437C1.54197 36.9156 0.985541 36.3172 0.598445 35.6052C0.195052 34.8574 -0.0111549 34.0134 0.000465312 33.1575V25.7611C-0.00828114 24.9362 0.191405 24.1233 0.579802 23.4025C0.9682 22.6817 1.53188 22.0781 2.21519 21.6511C2.90326 21.225 3.69043 21 4.49267 21C5.2949 21 6.08208 21.225 6.77015 21.6511C7.43883 22.076 7.99248 22.6689 8.37952 23.3744C8.78574 24.1126 8.99227 24.9502 8.9775 25.7992V26.8896C8.97862 26.9029 8.97691 26.9163 8.97249 26.9289C8.96806 26.9414 8.96103 26.9528 8.95189 26.9623C8.94274 26.9717 8.9317 26.979 8.91954 26.9835C8.90739 26.9881 8.89441 26.9899 8.88153 26.9887H6.31244C6.29955 26.9899 6.28658 26.9881 6.27442 26.9835C6.26227 26.979 6.25123 26.9717 6.24208 26.9623C6.23293 26.9528 6.2259 26.9414 6.22147 26.9289C6.21705 26.9163 6.21534 26.9029 6.21647 26.8896V25.7992C6.22436 25.302 6.05036 24.82 5.72923 24.4495C5.57677 24.2673 5.38716 24.1223 5.17401 24.0247C4.96085 23.9271 4.72944 23.8795 4.49636 23.8853C4.25615 23.8682 4.01553 23.9121 3.7955 24.0131C3.57547 24.1141 3.38269 24.2692 3.23397 24.4648C2.94581 24.8453 2.79213 25.3161 2.7984 25.7992V33.1956C2.77568 33.7196 2.95334 34.2317 3.29303 34.6215C3.44432 34.7956 3.63007 34.934 3.83768 35.0274C4.0453 35.1208 4.26994 35.167 4.49636 35.1629C4.73281 35.1668 4.96697 35.1145 5.18073 35.0101C5.3945 34.9056 5.58216 34.7518 5.72923 34.5605C6.04586 34.1812 6.21893 33.6964 6.21647 33.1956V32.0747C6.21647 32.0137 6.21647 31.9832 6.31244 31.9832H8.90367C8.96273 31.9832 8.99964 31.9832 8.99964 32.0747V33.1651C9.00993 34.0228 8.7984 34.8678 8.3869 35.6128C7.99546 36.3215 7.43996 36.9188 6.77015 37.3514C6.08771 37.7873 5.29867 38.0122 4.49636 37.9995Z" fill="white"/>
<path d="M15.5708 37.9999C14.7627 38.0059 13.9693 37.7787 13.2818 37.3443C12.599 36.9157 12.0304 36.3213 11.6266 35.6138C11.209 34.8945 10.9924 34.0718 11.0003 33.2354V25.7188C10.9915 24.8857 11.2055 24.0659 11.6191 23.348C12.0216 22.6455 12.5909 22.0582 13.2743 21.6404C13.949 21.2227 14.7224 21.0013 15.5111 21C16.3005 20.9962 17.0753 21.218 17.7479 21.6404C18.4253 22.061 18.9891 22.648 19.3883 23.348C19.7951 24.0684 20.0062 24.887 19.9997 25.7188V33.2354C20.0098 34.0701 19.7985 34.892 19.3883 35.6138C18.9893 36.3225 18.4227 36.9175 17.7405 37.3443C17.0885 37.7592 16.3387 37.9858 15.5708 37.9999ZM15.5708 35.1259C15.8054 35.1291 16.0379 35.0795 16.2518 34.9807C16.4656 34.8819 16.6557 34.7363 16.8085 34.5542C17.1433 34.2036 17.3307 33.733 17.3304 33.243V25.7265C17.333 25.2315 17.1456 24.7553 16.8085 24.4C16.6561 24.2234 16.4676 24.0833 16.2562 23.9898C16.0449 23.8962 15.8159 23.8515 15.5857 23.8588C15.3563 23.8553 15.1287 23.9003 14.917 23.9908C14.7053 24.0813 14.5142 24.2154 14.3555 24.3848C14.183 24.5601 14.0472 24.7695 13.9562 25.0001C13.8652 25.2307 13.8209 25.4778 13.8261 25.7265V33.243C13.8202 33.4886 13.862 33.7329 13.9491 33.9619C14.0361 34.1908 14.1666 34.3999 14.3331 34.577C14.4879 34.7556 14.6787 34.8978 14.8924 34.9938C15.106 35.0899 15.3374 35.1375 15.5708 35.1335V35.1259Z" fill="white"/>
<path d="M22.1727 38C22.0632 38 22.0016 37.9409 22.0016 37.8374V22.1866C21.9982 22.1615 22.0002 22.1358 22.0076 22.1117C22.015 22.0875 22.0275 22.0656 22.0441 22.0476C22.0607 22.0297 22.081 22.0162 22.1033 22.0082C22.1257 22.0002 22.1494 21.998 22.1727 22.0018H24.0885L27.6805 31.0581L27.5779 22.1866C27.5779 22.0609 27.6395 22.0018 27.7695 22.0018H29.8768C29.9589 22.0018 30 22.0609 30 22.1866V37.8595C30 37.9482 29.9658 38 29.8974 38H28.0226L24.3416 29.5351L24.4921 37.8152C24.4921 37.9335 24.4306 38 24.3006 38H22.1727Z" fill="white"/>
<path d="M36.4412 37.9964C35.6532 38.0035 34.8794 37.7757 34.2103 37.3395C33.5432 36.9118 32.9892 36.3156 32.5991 35.6055C32.2013 34.8808 31.9949 34.0581 32.0012 33.2221V32.1374C31.9987 32.1208 32 32.1038 32.005 32.0877C32.01 32.0717 32.0185 32.0571 32.0299 32.0452C32.0413 32.0333 32.0552 32.0244 32.0705 32.0192C32.0857 32.014 32.102 32.0126 32.1179 32.0152H34.655C34.7133 32.0152 34.7425 32.0152 34.7425 32.1374V33.2298C34.7382 33.4763 34.7804 33.7214 34.8667 33.9508C34.953 34.1802 35.0818 34.3895 35.2456 34.5666C35.3967 34.743 35.5816 34.8842 35.7882 34.9808C35.9948 35.0775 36.2186 35.1274 36.4449 35.1274C36.6711 35.1274 36.8949 35.0775 37.1015 34.9808C37.3082 34.8842 37.4931 34.743 37.6442 34.5666C37.9705 34.2089 38.1509 33.7322 38.1472 33.2374C38.1472 32.6492 37.7827 32.1451 37.0536 31.7096L35.9236 31.0451L34.4655 30.1895C33.6919 29.7433 33.053 29.0791 32.6209 28.2722C32.2126 27.4741 32.0044 26.5804 32.0158 25.675C32.0035 24.8362 32.2157 24.0106 32.6282 23.2917C33.0229 22.5967 33.5799 22.0184 34.2467 21.6111C34.912 21.2099 35.6663 20.9991 36.4339 21C37.2036 20.9982 37.9593 21.2147 38.6211 21.6264C39.2841 22.037 39.8361 22.6181 40.225 23.3146C40.6301 24.0281 40.8394 24.8448 40.8302 25.675V27.6229C40.8302 27.684 40.8302 27.7145 40.7354 27.7145H38.2639C38.2521 27.7157 38.2402 27.7142 38.2291 27.71C38.218 27.7058 38.2079 27.6991 38.1995 27.6903C38.1911 27.6816 38.1847 27.671 38.1807 27.6593C38.1767 27.6476 38.1753 27.6352 38.1764 27.6229V25.675C38.187 25.426 38.1485 25.1774 38.0632 24.9447C37.9779 24.7121 37.8476 24.5004 37.6806 24.3229C37.529 24.1546 37.3458 24.0209 37.1426 23.9302C36.9394 23.8395 36.7204 23.7937 36.4995 23.7958C36.2739 23.7945 36.0505 23.8436 35.8444 23.9397C35.6382 24.0359 35.454 24.1769 35.3039 24.3535C34.9767 24.7074 34.7959 25.1823 34.8008 25.675C34.7867 26.1335 34.898 26.5867 35.1216 26.9812C35.4216 27.4086 35.8171 27.7522 36.2735 27.9819L36.7183 28.2263C36.937 28.3486 37.1776 28.4784 37.4473 28.6312C37.7171 28.784 37.9358 28.9138 38.1764 29.0208L38.5482 29.2347C39.253 29.6321 39.8654 30.1877 40.3417 30.8617C40.7951 31.5579 41.0249 32.3874 40.9979 33.2298C41.0089 34.0597 40.8129 34.8782 40.4292 35.6044C40.0456 36.3305 39.4877 36.9392 38.8107 37.37C38.0949 37.8136 37.2721 38.0311 36.4412 37.9964Z" fill="white"/>
<path d="M46.552 37.9999C45.7472 38.0059 44.9571 37.7787 44.2724 37.3443C43.5924 36.9157 43.0262 36.3213 42.624 35.6138C42.2082 34.8945 41.9924 34.0718 42.0003 33.2354V25.7189C41.9915 24.8857 42.2046 24.066 42.6166 23.3481C43.0153 22.644 43.5828 22.0562 44.265 21.6405C44.9477 21.2161 45.7316 20.9944 46.5297 21.0001C47.3159 20.9962 48.0874 21.218 48.7573 21.6405C49.428 22.0636 49.9866 22.6501 50.3834 23.3481C50.7954 24.066 51.0085 24.8857 50.9997 25.7189V33.2354C51.0062 34.0696 50.796 34.8906 50.3909 35.6138C49.9935 36.3225 49.4293 36.9175 48.7499 37.3443C48.0898 37.7659 47.3293 37.9927 46.552 37.9999ZM46.552 35.1259C46.7825 35.1248 47.0101 35.0724 47.219 34.9724C47.4279 34.8724 47.6133 34.7271 47.7623 34.5466C48.0925 34.1938 48.2785 33.7246 48.2821 33.2354V25.7189C48.2926 25.2282 48.1169 24.7525 47.792 24.3924C47.6403 24.2158 47.4525 24.0757 47.242 23.9822C47.0315 23.8886 46.8035 23.8439 46.5743 23.8512C46.3457 23.8468 46.1187 23.8914 45.9078 23.9819C45.6969 24.0725 45.5066 24.2071 45.3491 24.3772C45.1804 24.5541 45.048 24.764 44.96 24.9946C44.872 25.2251 44.8301 25.4714 44.8367 25.7189V33.2354C44.8323 33.4814 44.8753 33.726 44.9632 33.9549C45.0511 34.1838 45.1823 34.3927 45.3491 34.5694C45.4987 34.7462 45.6835 34.8881 45.891 34.9854C46.0985 35.0827 46.3239 35.1332 46.552 35.1336V35.1259Z" fill="white"/>
<path d="M53.0927 37.9629C53.0285 37.9629 53 37.9186 53 37.8448L53.0143 22.0888C53.0143 22.0297 53.0143 22.0002 53.107 22.0002H57.5857C58.3597 21.992 59.1213 22.2011 59.7894 22.6051C60.4504 23.0001 61.0047 23.5607 61.4012 24.2353C61.7224 24.8098 61.92 25.4493 61.9803 26.11C62.0406 26.7707 61.9623 27.4371 61.7507 28.0637C61.6123 28.4715 61.4177 28.8566 61.173 29.207C61.0056 29.477 60.8068 29.7248 60.5811 29.9447C61.3605 30.8289 61.7862 31.9864 61.7721 33.1829V37.8817C61.7731 37.8975 61.7709 37.9133 61.7655 37.9281C61.7602 37.943 61.7518 37.9564 61.741 37.9676C61.7302 37.9788 61.7172 37.9874 61.7028 37.993C61.6885 37.9985 61.6732 38.0008 61.6579 37.9997H59.1547C59.0905 37.9997 59.062 37.9997 59.062 37.926V33.146C59.0704 32.8734 59.0247 32.6018 58.9278 32.3481C58.8309 32.0944 58.6848 31.8639 58.4986 31.6707C58.3218 31.4753 58.1073 31.3205 57.8689 31.2163C57.6306 31.1121 57.3737 31.0608 57.115 31.0659H55.6459V37.8079C55.6459 37.8817 55.6459 37.926 55.5603 37.926L53.0927 37.9629ZM55.7029 28.3735H57.6142C57.8414 28.3731 58.0663 28.3259 58.2756 28.2347C58.485 28.1436 58.6748 28.0102 58.8338 27.8424C59.0054 27.6799 59.1413 27.4813 59.2323 27.2599C59.3234 27.0385 59.3674 26.7994 59.3615 26.5589C59.364 26.3228 59.319 26.0888 59.2293 25.8716C59.1397 25.6545 59.0074 25.459 58.8409 25.2975C58.6807 25.1298 58.4896 24.9971 58.2789 24.9071C58.0682 24.8171 57.8422 24.7718 57.6142 24.7738H55.7029V28.3735Z" fill="white"/>
<path d="M66.1869 38C66.1274 38 66.0976 37.9556 66.0976 37.8817V24.78H63.1203C63.1041 24.7826 63.0875 24.7812 63.0719 24.7762C63.0563 24.7711 63.0421 24.7625 63.0305 24.751C63.0189 24.7394 63.0102 24.7253 63.0051 24.7098C63 24.6943 62.9987 24.6778 63.0013 24.6617V22.0887C63.0013 22.0296 63.0385 22 63.098 22H71.8809C71.9628 22 72 22 72 22.0887V24.6617C72 24.7431 72 24.78 71.9032 24.78H68.8739V37.8817C68.8739 37.9556 68.8739 38 68.7846 38H66.1869Z" fill="white"/>
<path d="M73.13 37.9988C73.1125 38.0013 73.0945 38 73.0777 37.9949C73.0608 37.9899 73.0455 37.9812 73.033 37.9697C73.0204 37.9582 73.011 37.9441 73.0055 37.9286C73 37.9131 72.9986 37.8966 73.0014 37.8805V22.0891C73.0014 22.0299 73.0014 22.0004 73.1059 22.0004H75.9031C75.9161 21.9992 75.9292 22.0007 75.9415 22.0048C75.9538 22.0088 75.9649 22.0153 75.9741 22.0238C75.9833 22.0323 75.9904 22.0425 75.9948 22.0538C75.9992 22.0651 76.0008 22.0772 75.9996 22.0891V37.8805C75.9996 37.9544 75.9996 37.9988 75.9031 37.9988H73.13Z" fill="white"/>
<path d="M82.4634 37.9978C81.6741 38.0004 80.8998 37.7832 80.2281 37.3708C79.5534 36.9622 78.9936 36.3903 78.6012 35.7083C78.1998 35.0119 77.9923 34.2215 78.0002 33.4188L78.0662 22.0879C78.065 22.0761 78.0665 22.0642 78.0706 22.0531C78.0746 22.042 78.081 22.0319 78.0894 22.0235C78.0978 22.0151 78.108 22.0087 78.1192 22.0047C78.1304 22.0007 78.1423 21.9992 78.1541 22.0004H80.7118C80.7236 21.9992 80.7356 22.0007 80.7468 22.0047C80.758 22.0087 80.7681 22.0151 80.7765 22.0235C80.7849 22.0319 80.7914 22.042 80.7954 22.0531C80.7994 22.0642 80.8009 22.0761 80.7997 22.0879V33.4261C80.786 33.906 80.9623 34.3722 81.2908 34.724C81.4386 34.8942 81.6223 35.0301 81.8287 35.122C82.0351 35.214 82.2592 35.2598 82.4853 35.2562C82.7149 35.2615 82.9429 35.2166 83.1531 35.1246C83.3633 35.0327 83.5506 34.8959 83.7019 34.724C84.0304 34.3722 84.2067 33.906 84.1929 33.4261V22.0879C84.1929 22.0295 84.1929 22.0004 84.2882 22.0004H86.8605C86.8724 21.9992 86.8843 22.0007 86.8955 22.0047C86.9067 22.0087 86.9168 22.0151 86.9252 22.0235C86.9336 22.0319 86.9401 22.042 86.9441 22.0531C86.9481 22.0642 86.9496 22.0761 86.9485 22.0879L86.9998 33.4261C87.0076 34.2196 86.8093 35.0017 86.4242 35.6967C86.039 36.3916 85.4799 36.9758 84.8012 37.3926C84.0966 37.8139 83.2849 38.024 82.4634 37.9978Z" fill="white"/>
<path d="M89.0923 38C89.0284 38 89 37.9556 89 37.8817L89.0426 22.0891C89.0426 22.0299 89.0426 22.0004 89.1349 22.0004H91.8267C91.8576 22.0015 91.8878 22.0101 91.9149 22.0255C91.942 22.0409 91.9653 22.0627 91.983 22.0891L93.9929 25.1278L96.0028 22.0891C96.0189 22.0628 96.0409 22.041 96.0669 22.0256C96.0929 22.0101 96.1221 22.0015 96.152 22.0004H98.8722C98.8836 21.9992 98.8952 22.0007 98.906 22.0048C98.9169 22.0088 98.9267 22.0153 98.9349 22.0238C98.943 22.0323 98.9492 22.0425 98.9531 22.0538C98.957 22.0651 98.9585 22.0772 98.9574 22.0891L99 37.8817C99 37.9556 99 38 98.9148 38H96.4219C96.358 38 96.3295 37.9556 96.3295 37.8817V26.1555L94.0142 29.6527L91.7131 26.1555V37.8817C91.7131 37.9556 91.7131 38 91.6278 38H89.0923Z" fill="white"/>
</svg>
